# xmcd CD database file
#
# Track frame offsets:
#	150
#	21610
#	36050
#	56110
#	63455
#	91065
#	119305
#	141630
#	164185
#	188115
#	195185
#	208115
#	217387
#	240175
#	267625
#	291230
#	305210
#
# Disc length: 4375 seconds
#
# Revision: 2
# Processed by: cddbd v1.5.2PL0 Copyright (c) Steve Scherf et al.
# Submitted via: CDex 1.70beta2
#
DISCID=18111511
DTITLE=Chick Corea - My Spanish Heart
DYEAR=1976
DGENRE=Jazz
TTITLE0=Love Castle
TTITLE1=The Gardens
TTITLE2=Day Danse
TTITLE3=My Spanish Heart
TTITLE4=Night Streets
TTITLE5=The Hilltop
TTITLE6=The Sky
TTITLE7=Wind Danse
TTITLE8=Armando's Rhumba
TTITLE9=Prelude To El Bozo
TTITLE10=El Bozo, Part I
TTITLE11=El Bozo Part II
TTITLE12=El Bozo, Part III
TTITLE13=Spanish Fantasy, Part I
TTITLE14=Spanish Fantasy, Part II
TTITLE15=Spanish Fantasy, Part III
TTITLE16=Spanish Fantasy, Part IV
EXTD=YEAR: 1976
EXTT0=
EXTT1=
EXTT2=
EXTT3=
EXTT4=
EXTT5=
EXTT6=
EXTT7=
EXTT8=
EXTT9=
EXTT10=
EXTT11=
EXTT12=
EXTT13=
EXTT14=
EXTT15=
EXTT16=
PLAYORDER=
